<svg width="33" height="30" viewBox="0 0 33 30" fill="none" xmlns="http://www.w3.org/2000/svg">
<g id="Group 7901">
<path id="Vector" d="M16.8542 30C25.3371 30 32.1009 23.2843 31.9615 15C31.8221 6.71573 24.8323 0 16.3494 0C7.86649 0 1.10272 6.71573 1.24212 15C1.38152 23.2843 8.37129 30 16.8542 30Z" fill="#F7931A"/>
<path id="Vector_2" d="M22.7021 11.6266C22.1428 10.8537 21.2412 10.3359 19.7277 9.92515L19.7044 9.91834L20.5027 7.17053L18.9648 6.75587L18.1665 9.50952C17.7055 9.3898 17.197 9.25742 16.6955 9.13283L17.506 6.35971L15.9671 5.94214L15.1475 8.71915C14.5984 8.59261 12.0069 7.85091 12.0069 7.85091L11.5085 9.45307L13.482 10.0303L11.1195 18.1209L9.16321 17.5515L8.66376 19.1857C8.66376 19.1857 11.2421 19.9567 11.8226 20.1426L10.9989 22.9351L12.5368 23.3498L13.3422 20.5962C13.8487 20.7538 14.3644 20.8882 14.8071 21.0215L13.9956 23.7547L15.5335 24.1694L16.3257 21.477C18.0328 21.8946 19.3244 21.8771 20.2767 21.4099C20.6831 21.2032 21.0405 20.9179 21.3265 20.572C21.6124 20.2261 21.8207 19.827 21.9382 19.3999C22.4356 17.713 21.3942 16.4632 20.3588 15.8958L20.37 15.8637C21.7326 15.7566 22.7639 14.9983 23.086 13.9033C23.3515 13.0039 23.1833 12.2272 22.7021 11.6266ZM17.9983 18.1686C17.7076 19.1546 16.6529 19.65 15.2123 19.2617L13.9814 18.9259L14.9459 15.6388C15.3637 15.6753 15.7765 15.7529 16.1778 15.8705C17.5495 16.2462 18.3519 16.9723 17.9983 18.1686ZM19.4957 13.4234C19.4228 13.6899 19.279 13.9335 19.0785 14.1305C18.8779 14.3274 18.6275 14.4708 18.3519 14.5467C17.9021 14.6878 17.3449 14.6888 16.7158 14.5175H16.7056L15.4808 14.1846L16.4483 10.8975C16.8652 10.9353 17.2769 11.0139 17.6772 11.1321C17.6833 11.1321 17.6873 11.1321 17.6934 11.1321C18.3093 11.3034 18.8078 11.5429 19.138 11.8641C19.5392 12.2564 19.6902 12.7713 19.4957 13.4234Z" fill="white"/>
</g>
</svg>
