<svg width="32" height="28" viewBox="0 0 32 28" fill="none" xmlns="http://www.w3.org/2000/svg">
<g id="Group 7905">
<path id="Vector" d="M16.6494 27.6708C25.1273 27.6708 31.7092 21.4765 31.3506 13.8354C30.9919 6.19433 23.8285 0 15.3506 0C6.87269 0 0.290752 6.19433 0.649412 13.8354C1.00807 21.4765 8.17152 27.6708 16.6494 27.6708Z" fill="#77BF00"/>
<path id="Vector_2" d="M19.8079 7.8544C18.8937 7.48252 17.8105 7.46832 16.2382 7.81302L16.2138 7.81793L15.452 5.25322L13.856 5.60564L14.6209 8.17503C14.1449 8.28433 13.6196 8.40469 13.1049 8.52815L12.3404 5.93768L10.7419 6.2882L11.5003 8.88586C10.942 9.02898 8.22938 9.58829 8.22938 9.58829L8.64408 11.0984L10.7164 10.6824L12.9486 18.2392L10.8958 18.6538L11.3268 20.1902C11.3268 20.1902 14.0433 19.6602 14.6615 19.5508L15.4247 22.1628L17.0207 21.8104L16.2622 19.2378C16.7993 19.1387 17.3319 19.0167 17.7989 18.9265L18.541 21.4854L20.1371 21.1329L19.3997 18.6156C21.1484 18.1901 22.2926 17.6 22.8924 16.7998C23.1444 16.4525 23.3105 16.0638 23.3803 15.6583C23.45 15.2527 23.4218 14.839 23.2976 14.4433C22.8365 12.8656 21.2356 12.3254 20.0063 12.3309L19.999 12.3001C21.1586 11.6065 21.6727 10.5371 21.3728 9.51326C21.1271 8.67196 20.5601 8.12258 19.8079 7.8544ZM19.1179 15.2103C19.3874 16.1326 18.7114 17.0011 17.2163 17.3312L15.9367 17.6101L15.034 14.5379C15.4267 14.3809 15.8371 14.2593 16.2586 14.1748C17.6853 13.8652 18.7917 14.0911 19.1179 15.2103ZM17.9085 10.7284C17.9864 10.9751 17.9888 11.2351 17.9154 11.4828C17.842 11.7305 17.6953 11.9574 17.4898 12.1413C17.1639 12.4554 16.6667 12.7046 16.0129 12.8474L16.0038 12.8519L14.7313 13.1305L13.8312 10.0569C14.2238 9.90136 14.6338 9.78094 15.0547 9.6975C15.0601 9.69479 15.0637 9.69298 15.0691 9.69027C15.7112 9.55332 16.2849 9.52355 16.7523 9.63448C17.3211 9.77091 17.7323 10.1175 17.9085 10.7284Z" fill="white"/>
</g>
</svg>
