<svg width="34" height="34" viewBox="0 0 34 34" fill="none" xmlns="http://www.w3.org/2000/svg">
<g id="Group 7902">
<path id="Vector" d="M33.3867 16.6934C33.3867 7.47388 25.9128 1.03114e-05 16.6934 1.07144e-05C7.47387 1.11174e-05 -1.13269e-06 7.47388 -7.2969e-07 16.6934C-3.26693e-07 25.9128 7.47387 33.3867 16.6934 33.3867C25.9128 33.3867 33.3867 25.9128 33.3867 16.6934Z" fill="#3E7DDD"/>
<path id="Vector_2" d="M23.2658 17.4233L16.6765 14.3885V6.05419L16.7087 6L23.2658 17.4233Z" fill="#C0CCF7"/>
<path id="Vector_3" d="M23.3547 17.579L16.7087 21.6257L16.6765 21.6062V14.3887L23.2658 17.4235L23.3547 17.579Z" fill="#A6B9FF"/>
<path id="Vector_4" d="M16.6771 6.0542V14.3885L10.0302 17.529L16.6771 6.0542Z" fill="white"/>
<path id="Vector_5" d="M23.2658 19.0298L16.6765 23.1538V28.71L16.7087 28.7642L23.2658 19.0298Z" fill="#C0CCF7"/>
<path id="Vector_6" d="M16.6771 28.7098V23.1536L10.0302 18.9238L16.6771 28.7098Z" fill="white"/>
<path id="Vector_7" d="M16.6765 14.3887V21.6062L10 17.579L10.0296 17.5292L16.6765 14.3887Z" fill="#C0CCF7"/>
</g>
</svg>
